<?xml version="1.0" encoding="UTF-8"?>
<svg width="328px" height="146px" viewBox="0 0 328 146" version="1.1" xmlns="http://www.w3.org/2000/svg" xmlns:xlink="http://www.w3.org/1999/xlink">
    <!-- Generator: Sketch 51.3 (57544) - http://www.bohemiancoding.com/sketch -->
    <title>ssl-secured</title>
    <desc>Created with Sketch.</desc>
    <defs></defs>
    <g id="Page-1" stroke="none" stroke-width="1" fill="none" fill-rule="evenodd">
        <g id="ssl-secured" fill="#333333" fill-rule="nonzero">
            <path d="M0.566165361,145.414286 L103.412141,145.414286 L103.412141,72.9 L0.566165361,72.9 L0.566165361,145.414286 Z M36.7761572,102.662514 L46.4723531,112.35871 L68.9310632,89.9 L76.141055,97.1099918 L46.4723531,126.778694 L29.5661654,109.872506 L36.7761572,102.662514 Z M30.8867204,39.3532897 C30.8867204,27.751004 40.3342959,18.3034285 52.019455,18.3034285 C63.6217407,18.3034285 73.0693162,27.751004 73.0693162,39.3532897 L73.0693162,61.1490121 L90.4727447,61.1490121 L90.4727447,39.3532897 C90.3898713,18.1376816 73.1521897,0.9 52.019455,0.9 C30.8038469,0.9 13.5661654,18.1376816 13.5661654,39.3532897 L13.5661654,61.1490121 L30.9695939,61.1490121 L30.9695939,39.3532897 L30.8867204,39.3532897 Z M191.8,65.6 C191.8,53 184.4,45.8 172.7,41.4 L161.9,36.8 C153.3,33.7 147.3,31.6 147.3,26.3 C147.3,21.1 151.8,18.2 158.5,18.2 C167.2,18.2 172.8,20.8 179,25.3 L189.2,12.6 C181.1,5 170.4,0.9 159.6,0.9 C140.4,0.9 127,12.6 127,27.4 C127,40.4 136,48 146,51.7 L157.5,56.6 C166,60.1 171.3,61.8 171.3,68.1 C171.3,72.6 167.3,75.9 158.8,75.9 C150.2,75.9 141.9,72.1 135.2,66.6 L123.6,80.4 C133.1,88.9 145.4,93.2 157.4,93.2 C179.4,93.2 191.8,80.3 191.8,65.6 Z M240.9,41.4 L230.1,36.8 C221.5,33.7 215.5,31.6 215.5,26.3 C215.5,21.1 220,18.2 226.7,18.2 C235.4,18.2 241,20.8 247.2,25.3 L257.4,12.6 C249.3,5 238.6,0.9 227.8,0.9 C208.6,0.9 195.2,12.6 195.2,27.4 C195.2,40.4 204.2,48 214.2,51.7 L225.7,56.6 C234.2,60.1 239.5,61.8 239.5,68.1 C239.5,72.6 235.5,75.9 227,75.9 C218.4,75.9 210.1,72.1 203.4,66.6 L191.8,80.4 C201.3,88.9 213.6,93.2 225.6,93.2 C247.7,93.2 260.1,80.4 260.1,65.6 C260,53 252.7,45.8 240.9,41.4 Z" id="Shape"></path>
            <polygon id="Shape" points="287.7 74.6 287.7 2.5 267.7 2.5 267.7 91.5 327.3 91.5 327.3 74.6"></polygon>
            <path d="M142.5,123.1 L137.1,120.8 C133.8,119.4 130.2,118.1 130.2,114.4 C130.2,110.9 133.2,108.8 137.7,108.8 C141.7,108.8 144.6,110.2 147.2,112.4 L149.8,109.2 C147,106.4 142.8,104.4 137.9,104.4 C130.6,104.4 125.3,108.7 125.3,114.6 C125.3,120.2 129.8,123 133.6,124.5 L139.1,126.9 C143,128.6 146,129.8 146,133.9 C146,137.5 142.9,140 137.6,140 C133.2,140 129.2,138.1 126.3,135.2 L123.4,138.6 C126.9,142.1 131.7,144.3 137.4,144.3 C145.9,144.3 151,139.4 151,133.3 C151,127.6 147.2,125 142.5,123.1 Z" id="Shape"></path>
            <polygon id="Shape" points="166.3 125.5 182.3 125.5 182.3 121.3 166.3 121.3 166.3 109.2 185.2 109.2 185.2 105.1 161.4 105.1 161.4 143.6 185.8 143.6 185.8 139.4 166.3 139.4"></polygon>
            <path d="M210.9,140 C203.5,140 198.7,133.9 198.7,124.2 C198.7,114.6 203.5,108.6 210.9,108.6 C214.1,108.6 216.7,110 218.6,112.1 L221.4,109 C219.2,106.5 215.5,104.3 210.9,104.3 C200.9,104.3 193.6,111.9 193.6,124.3 C193.6,136.9 200.9,144.3 210.4,144.3 C215.5,144.3 219.3,142.2 222.3,138.7 L219.5,135.7 C217.2,138.5 214.5,140 210.9,140 Z M250.9,129.2 C250.9,137.2 247.4,140.1 242.7,140.1 C238.1,140.1 234.6,137.2 234.6,129.2 L234.6,105.1 L229.7,105.1 L229.7,129.1 C229.7,140.1 235.2,144.4 242.7,144.4 C250.2,144.4 255.6,140.2 255.6,129.1 L255.6,105.1 L250.8,105.1 L250.8,129.2 L250.9,129.2 Z M291.6,115.9 C291.6,107.9 286,105.1 278.2,105.1 L266.2,105.1 L266.2,143.6 L271.1,143.6 L271.1,127.3 L278,127.3 L287.3,143.6 L292.9,143.6 L283.1,126.8 C288.1,125.5 291.6,121.9 291.6,115.9 Z M277.4,123.3 L271,123.3 L271,109 L277.4,109 C283.4,109 286.7,110.8 286.7,115.9 C286.7,120.9 283.4,123.3 277.4,123.3 Z" id="Shape"></path>
            <polygon id="Shape" points="307.1 125.5 323.1 125.5 323.1 121.3 307.1 121.3 307.1 109.2 326 109.2 326 105.1 302.1 105.1 302.1 143.6 326.6 143.6 326.6 139.4 307.1 139.4"></polygon>
        </g>
    </g>
</svg>